<?xml version="1.0" encoding="iso-8859-1"?>
<svg version="1.1" id="Capa_1" xmlns="http://www.w3.org/2000/svg" xmlns:xlink="http://www.w3.org/1999/xlink" x="0px" y="0px"
	 viewBox="0 0 512 512" style="enable-background:new 0 0 512 512;" xml:space="preserve">
<path style="fill:#37bad9;" d="M457.193,330.297H255.821H54.449l-20.19,41.04c-1.588,3.228-0.886,7.103,1.721,9.582
	c16.14,15.351,79.744,65.441,219.842,62.177c140.097,3.265,203.702-46.825,219.842-62.177c2.607-2.48,3.309-6.354,1.721-9.582
	L457.193,330.297z"/>
<path style="fill:#239dba;" d="M475.66,380.919c-10.453,9.95-40.846,34.487-99.06,49.627c39.667-15.848,62.029-34.2,71.117-42.847
	c2.954-2.811,3.744-7.201,1.949-10.863l-22.895-46.54h30.425l20.187,41.041C478.974,374.569,478.266,378.436,475.66,380.919z"/>
<rect x="54.01" y="293.3" style="fill:#FFCD43;" width="403.62" height="37.37"/>
<rect x="426.4" y="293.3" style="fill:#FFAF45;" width="31.24" height="37.37"/>
<path style="fill:#E8E8EA;" d="M502.731,175.43c-5.487-8.643-13.096-15.685-22.44-19.949L275.527,73.079
	c-6.216-2.836-12.777-4.27-19.344-4.318v-0.01c-0.061,0-0.121,0.005-0.182,0.005c-0.061,0-0.122-0.005-0.182-0.005v0.01
	c-6.567,0.048-13.129,1.481-19.344,4.318L31.709,155.481c-9.344,4.264-16.953,11.306-22.44,19.949
	c-14.424,22.718-11.661,53.244,5.836,73.342l38.769,44.531h201.563h0.381h0.365h0.381h201.563l38.769-44.531
	C514.392,228.674,517.155,198.148,502.731,175.43z"/>
<path style="fill:#D6D6D8;" d="M496.894,248.767l-38.764,44.539h-31.245l31.368-36.025c17.5-20.095,20.259-50.622,5.837-73.343
	c-5.488-8.647-13.099-15.684-22.444-19.951L236.879,81.586c-3.99-1.816-8.114-3.057-12.299-3.724l11.889-4.78
	c6.216-2.841,12.781-4.277,19.346-4.318v-0.01h0.369v0.01c6.565,0.041,13.13,1.477,19.346,4.318l204.756,82.401
	c9.345,4.267,16.956,11.304,22.444,19.951C517.153,198.145,514.394,228.672,496.894,248.767z"/>
<path style="fill:#FFCD43;" d="M477.388,371.332c1.588,3.228,0.886,7.103-1.721,9.582c-16.14,15.353-79.751,65.449-219.846,62.176
	c-140.095,3.273-203.705-46.824-219.846-62.176c-2.607-2.48-3.309-6.354-1.721-9.582l8.85-17.989
	c23.995,17.039,88.27,55.867,212.896,53.333c124.626,2.534,188.543-36.294,212.538-53.333L477.388,371.332z"/>
<path style="fill:#FFAF45;" d="M478.118,374.955c-0.008,0.518-0.059,1.046-0.159,1.585c-0.928,4.983-6.121,7.581-9.57,10.656
	c-5.185,4.622-11.186,8.535-17.06,12.218c-5.785,3.627-11.615,6.894-17.684,9.965c-3.17,1.604-6.374,3.138-9.612,4.601
	c-3.699,1.671-7.637,3.346-11.474,4.882c-3.395,1.357-6.816,2.647-10.261,3.869c-6.715,2.383-13.521,4.507-20.394,6.389
	c-0.862,0.236-1.723,0.472-2.595,0.708c-0.892,0.246-1.795,0.482-2.708,0.718c39.667-15.848,62.029-34.2,71.117-42.847
	c2.954-2.811,3.744-7.201,1.949-10.863l-4.411-8.976c10.053-5.478,17.726-10.566,23.285-14.515c1.616,3.286,3.231,6.571,4.847,9.858
	C475.253,366.996,478.184,370.622,478.118,374.955z"/>
	<g transform="translate(204.5 145) scale(2.5 2.5)">
	 	<path d="m40.2725,37.7188c0,2.61-2.115,4.725-4.72375,4.725h-29.8238c-2.61,0-4.725-2.115-4.725-4.725v-31.9938c0-2.61,2.115-4.725,4.725-4.725h29.8238c2.60875,0,4.72375,2.115,4.72375,4.725v31.9938z" fill-rule="nonzero" fill="#37bad9"/>
		<path d="m26.8964,20.646,7.75-9.71875-0.0237-0.0312-11.2,5.39375-2.76625-12.1188-0.04,0-2.76625,12.1188-11.2-5.39375-0.025,0.0312,7.75125,9.71875-11.2,5.39375,0.009,0.0388,12.4312,0-2.76625,12.12,0.035,0.0163,7.75125-9.71875,7.75125,9.71875,0.0337-0.0175-2.765-12.1188,12.4312,0,0.009-0.0388-11.2-5.39375z" fill-rule="nonzero" fill="#FFF"/>
	</g>
<!-- <path stroke="red" stroke-width="1" d="M256 0 l0 400"></path> -->
</svg>
